<svg xmlns="http://www.w3.org/2000/svg" width="1920" height="1080" viewBox="0 0 1920 1080">
  <!-- Base -->
  <rect width="1920" height="1080" fill="#FFFFFF"/>
  <rect x="0" y="0" width="12" height="1080" fill="#0D9488"/>
  <rect x="12" y="0" width="1908" height="4" fill="#0D9488"/>
  <rect x="12" y="1076" width="1908" height="4" fill="#0A0A0A"/>

  <!-- Partner logo boxes -->
  <rect x="60" y="20" width="220" height="40" fill="#0D9488" rx="4"/>
  <text x="170" y="46" font-family="Arial,sans-serif" font-size="16" font-weight="700" fill="#FFFFFF" text-anchor="middle">AI Agent Olympics</text>
  <rect x="1640" y="20" width="220" height="40" fill="#0A0A0A" rx="4"/>
  <text x="1750" y="46" font-family="Arial,sans-serif" font-size="16" font-weight="700" fill="#FFFFFF" text-anchor="middle">lablab.ai · 5 Sponsors</text>

  <!-- Slide number -->
  <text x="1860" y="50" font-family="Arial,sans-serif" font-size="18" fill="#5A5A5A" text-anchor="end">05 / 08</text>

  <!-- Context label -->
  <text x="960" y="100" font-family="Arial,sans-serif" font-size="14" font-weight="700" fill="#0D9488" text-anchor="middle" letter-spacing="3">29/29 TESTS PASS · 7 CATEGORIES · SCIENTIFIC TEST SUITE · DETERMINISTIC · REPRODUCIBLE</text>

  <!-- Title -->
  <text x="80" y="160" font-family="Arial Black,Arial,sans-serif" font-size="52" font-weight="900" fill="#0A0A0A">It works. Here are the numbers.</text>
  <!-- Sub -->
  <text x="80" y="200" font-family="Arial,sans-serif" font-size="24" fill="#444444">29 tests. 7 categories. All PASS. Run in 4.2 seconds. Deterministic. Reproducible. Open source.</text>
  <rect x="80" y="215" width="1760" height="4" fill="#0D9488" rx="2"/>

  <!-- TABLE HEADER -->
  <rect x="80" y="228" width="1280" height="46" fill="#0A0A0A" rx="4"/>
  <text x="180" y="258" font-family="Arial,sans-serif" font-size="16" font-weight="700" fill="#0D9488">CATEGORY</text>
  <text x="420" y="258" font-family="Arial,sans-serif" font-size="16" font-weight="700" fill="#0D9488">TESTS</text>
  <text x="540" y="258" font-family="Arial,sans-serif" font-size="16" font-weight="700" fill="#0D9488">WHAT IT VERIFIES</text>
  <text x="1220" y="258" font-family="Arial,sans-serif" font-size="16" font-weight="700" fill="#0D9488" text-anchor="end">STATUS</text>

  <!-- ROW 1 — T1 DPI Ingress -->
  <rect x="80" y="274" width="1280" height="62" fill="#F0FDFA" rx="0"/>
  <rect x="80" y="274" width="6" height="62" fill="#DC2626"/>
  <text x="100" y="302" font-family="Arial,sans-serif" font-size="17" font-weight="700" fill="#0A0A0A">T1  DPI Ingress</text>
  <text x="100" y="322" font-family="Arial,sans-serif" font-size="13" fill="#5A5A5A">src/gateway/ingress.py</text>
  <text x="420" y="310" font-family="Arial Black,Arial,sans-serif" font-size="28" font-weight="900" fill="#0D9488">6</text>
  <text x="540" y="300" font-family="Arial,sans-serif" font-size="16" fill="#333333">3 benign ALLOW + 3 attacks DENY</text>
  <text x="540" y="322" font-family="Arial,sans-serif" font-size="13" fill="#5A5A5A">Encoding attacks · PAN injection · prompt injection blocked</text>
  <rect x="1160" y="288" width="130" height="36" fill="#16A34A" rx="4"/>
  <text x="1225" y="312" font-family="Arial,sans-serif" font-size="16" font-weight="700" fill="#FFFFFF" text-anchor="middle">✓ PASS</text>
  <rect x="80" y="336" width="1280" height="1" fill="#E0E0E0"/>

  <!-- ROW 2 — T2 Audit Chain -->
  <rect x="80" y="337" width="1280" height="62" fill="#FFFFFF" rx="0"/>
  <rect x="80" y="337" width="6" height="62" fill="#F59E0B"/>
  <text x="100" y="365" font-family="Arial,sans-serif" font-size="17" font-weight="700" fill="#0A0A0A">T2  Audit Chain</text>
  <text x="100" y="385" font-family="Arial,sans-serif" font-size="13" fill="#5A5A5A">src/audit/audit_chain.py</text>
  <text x="420" y="373" font-family="Arial Black,Arial,sans-serif" font-size="28" font-weight="900" fill="#0D9488">12</text>
  <text x="540" y="363" font-family="Arial,sans-serif" font-size="16" fill="#333333">2-record and 10-record chains verified</text>
  <text x="540" y="385" font-family="Arial,sans-serif" font-size="13" fill="#5A5A5A">Ed25519 signature · SHA-256 hash · chain_verified: True</text>
  <rect x="1160" y="350" width="130" height="36" fill="#16A34A" rx="4"/>
  <text x="1225" y="374" font-family="Arial,sans-serif" font-size="16" font-weight="700" fill="#FFFFFF" text-anchor="middle">✓ PASS</text>
  <rect x="80" y="399" width="1280" height="1" fill="#E0E0E0"/>

  <!-- ROW 3 — T3 Orchestrator -->
  <rect x="80" y="400" width="1280" height="62" fill="#F0FDFA" rx="0"/>
  <rect x="80" y="400" width="6" height="62" fill="#4285F4"/>
  <text x="100" y="428" font-family="Arial,sans-serif" font-size="17" font-weight="700" fill="#0A0A0A">T3  Orchestrator</text>
  <text x="100" y="448" font-family="Arial,sans-serif" font-size="13" fill="#5A5A5A">src/orchestrator/gemini_orchestrator.py</text>
  <text x="420" y="436" font-family="Arial Black,Arial,sans-serif" font-size="28" font-weight="900" fill="#0D9488">2</text>
  <text x="540" y="426" font-family="Arial,sans-serif" font-size="16" fill="#333333">plan() + synthesise() methods verified</text>
  <text x="540" y="448" font-family="Arial,sans-serif" font-size="13" fill="#5A5A5A">Gemini Pro orchestration · multi-step planning confirmed</text>
  <rect x="1160" y="414" width="130" height="36" fill="#16A34A" rx="4"/>
  <text x="1225" y="438" font-family="Arial,sans-serif" font-size="16" font-weight="700" fill="#FFFFFF" text-anchor="middle">✓ PASS</text>
  <rect x="80" y="462" width="1280" height="1" fill="#E0E0E0"/>

  <!-- ROW 4 — T4 Router -->
  <rect x="80" y="463" width="1280" height="62" fill="#FFFFFF" rx="0"/>
  <rect x="80" y="463" width="6" height="62" fill="#0D9488"/>
  <text x="100" y="491" font-family="Arial,sans-serif" font-size="17" font-weight="700" fill="#0A0A0A">T4  Router</text>
  <text x="100" y="511" font-family="Arial,sans-serif" font-size="13" fill="#5A5A5A">src/router/featherless_router.py</text>
  <text x="420" y="499" font-family="Arial Black,Arial,sans-serif" font-size="28" font-weight="900" fill="#0D9488">1</text>
  <text x="540" y="489" font-family="Arial,sans-serif" font-size="16" fill="#333333">route() returns RoutingDecision</text>
  <text x="540" y="511" font-family="Arial,sans-serif" font-size="13" fill="#5A5A5A">Medical→BioMistral / Code→DeepSeek / Multi→Qwen2.5</text>
  <rect x="1160" y="477" width="130" height="36" fill="#16A34A" rx="4"/>
  <text x="1225" y="501" font-family="Arial,sans-serif" font-size="16" font-weight="700" fill="#FFFFFF" text-anchor="middle">✓ PASS</text>
  <rect x="80" y="525" width="1280" height="1" fill="#E0E0E0"/>

  <!-- ROW 5 — T5 Tool Executor -->
  <rect x="80" y="526" width="1280" height="62" fill="#F0FDFA" rx="0"/>
  <rect x="80" y="526" width="6" height="62" fill="#5B21B6"/>
  <text x="100" y="554" font-family="Arial,sans-serif" font-size="17" font-weight="700" fill="#0A0A0A">T5  Tool Executor</text>
  <text x="100" y="574" font-family="Arial,sans-serif" font-size="13" fill="#5A5A5A">src/tools/tool_executor.py</text>
  <text x="420" y="562" font-family="Arial Black,Arial,sans-serif" font-size="28" font-weight="900" fill="#0D9488">1</text>
  <text x="540" y="552" font-family="Arial,sans-serif" font-size="16" fill="#333333">execute_tool("search") → ToolResult</text>
  <text x="540" y="574" font-family="Arial,sans-serif" font-size="13" fill="#5A5A5A">Kraken · Vultr · Search all verified via executor</text>
  <rect x="1160" y="540" width="130" height="36" fill="#16A34A" rx="4"/>
  <text x="1225" y="564" font-family="Arial,sans-serif" font-size="16" font-weight="700" fill="#FFFFFF" text-anchor="middle">✓ PASS</text>
  <rect x="80" y="588" width="1280" height="1" fill="#E0E0E0"/>

  <!-- ROW 6 — T6 Ingress Pipeline -->
  <rect x="80" y="589" width="1280" height="62" fill="#FFFFFF" rx="0"/>
  <rect x="80" y="589" width="6" height="62" fill="#E35C14"/>
  <text x="100" y="617" font-family="Arial,sans-serif" font-size="17" font-weight="700" fill="#0A0A0A">T6  Ingress Pipeline</text>
  <text x="100" y="637" font-family="Arial,sans-serif" font-size="13" fill="#5A5A5A">src/gateway/ingress.py (pipeline)</text>
  <text x="420" y="625" font-family="Arial Black,Arial,sans-serif" font-size="28" font-weight="900" fill="#0D9488">3</text>
  <text x="540" y="615" font-family="Arial,sans-serif" font-size="16" fill="#333333">text→ALLOW / text→DENY / IngressResult</text>
  <text x="540" y="637" font-family="Arial,sans-serif" font-size="13" fill="#5A5A5A">End-to-end ingress pipeline with audit logging</text>
  <rect x="1160" y="603" width="130" height="36" fill="#16A34A" rx="4"/>
  <text x="1225" y="627" font-family="Arial,sans-serif" font-size="16" font-weight="700" fill="#FFFFFF" text-anchor="middle">✓ PASS</text>
  <rect x="80" y="651" width="1280" height="1" fill="#E0E0E0"/>

  <!-- ROW 7 — T7 Agent Module -->
  <rect x="80" y="652" width="1280" height="62" fill="#F0FDFA" rx="0"/>
  <rect x="80" y="652" width="6" height="62" fill="#0D9488"/>
  <text x="100" y="680" font-family="Arial,sans-serif" font-size="17" font-weight="700" fill="#0A0A0A">T7  Agent Module</text>
  <text x="100" y="700" font-family="Arial,sans-serif" font-size="13" fill="#5A5A5A">src/agent/atlas_agent.py</text>
  <text x="420" y="688" font-family="Arial Black,Arial,sans-serif" font-size="28" font-weight="900" fill="#0D9488">4</text>
  <text x="540" y="678" font-family="Arial,sans-serif" font-size="16" fill="#333333">AtlasAgent class + run_text() end-to-end</text>
  <text x="540" y="700" font-family="Arial,sans-serif" font-size="13" fill="#5A5A5A">Agent initialization · text input · structured response verified</text>
  <rect x="1160" y="666" width="130" height="36" fill="#16A34A" rx="4"/>
  <text x="1225" y="690" font-family="Arial,sans-serif" font-size="16" font-weight="700" fill="#FFFFFF" text-anchor="middle">✓ PASS</text>

  <!-- Table bottom border -->
  <rect x="80" y="714" width="1280" height="3" fill="#0D9488" rx="2"/>

  <!-- Total row -->
  <rect x="80" y="717" width="1280" height="44" fill="#0A0A0A" rx="0"/>
  <text x="100" y="746" font-family="Arial,sans-serif" font-size="17" font-weight="700" fill="#FFFFFF">TOTAL  ·  7 CATEGORIES</text>
  <text x="420" y="746" font-family="Arial Black,Arial,sans-serif" font-size="24" font-weight="900" fill="#F59E0B">29</text>
  <text x="540" y="746" font-family="Arial,sans-serif" font-size="16" fill="#CCCCCC">All assertions verified · python src/test_atlas.py</text>
  <text x="1160" y="746" font-family="Arial,sans-serif" font-size="17" font-weight="700" fill="#0D9488" text-anchor="end">ALL PASS ✓</text>

  <!-- Big teal badge -->
  <rect x="1380" y="228" width="460" height="533" fill="#0D9488" rx="10"/>
  <text x="1610" y="380" font-family="Arial Black,Arial,sans-serif" font-size="100" font-weight="900" fill="#FFFFFF" text-anchor="middle">29</text>
  <text x="1610" y="430" font-family="Arial Black,Arial,sans-serif" font-size="40" font-weight="900" fill="#F59E0B" text-anchor="middle">/ 29</text>
  <text x="1610" y="480" font-family="Arial,sans-serif" font-size="22" font-weight="700" fill="#FFFFFF" text-anchor="middle">TESTS PASS</text>
  <rect x="1420" y="500" width="380" height="3" fill="#F59E0B" rx="2"/>
  <text x="1610" y="540" font-family="Arial,sans-serif" font-size="18" fill="#CCFBF1" text-anchor="middle">7 categories</text>
  <text x="1610" y="568" font-family="Arial,sans-serif" font-size="18" fill="#CCFBF1" text-anchor="middle">4.2 seconds</text>
  <text x="1610" y="596" font-family="Arial,sans-serif" font-size="18" fill="#CCFBF1" text-anchor="middle">Deterministic</text>
  <text x="1610" y="624" font-family="Arial,sans-serif" font-size="18" fill="#CCFBF1" text-anchor="middle">Reproducible</text>
  <text x="1610" y="652" font-family="Arial,sans-serif" font-size="18" fill="#CCFBF1" text-anchor="middle">MIT Licensed</text>
  <rect x="1420" y="672" width="380" height="3" fill="#F59E0B" rx="2"/>
  <text x="1610" y="700" font-family="Courier New,monospace" font-size="14" fill="#A7F3D0" text-anchor="middle">python src/test_atlas.py</text>
  <text x="1610" y="724" font-family="Courier New,monospace" font-size="13" fill="#A7F3D0" text-anchor="middle">→ 29/29 PASS</text>

  <!-- Reproduce panel -->
  <rect x="80" y="780" width="1280" height="70" fill="#F4F4F4" stroke="#0D9488" stroke-width="2" rx="6"/>
  <text x="100" y="810" font-family="Courier New,monospace" font-size="17" fill="#0A0A0A">$ git clone github.com/SRKRZ23/atlas</text>
  <text x="100" y="836" font-family="Courier New,monospace" font-size="17" fill="#0D9488">$ python src/test_atlas.py   →   29/29 PASS in under 1 second</text>

  <!-- Source -->
  <text x="80" y="1055" font-family="Courier New,monospace" font-size="12" fill="#5A5A5A">Source: src/test_atlas.py · All test assertions in test file · github.com/SRKRZ23/atlas · Run yourself to verify</text>
</svg>
